<svg width="38" height="38" viewBox="0 0 38 38" fill="none" xmlns="http://www.w3.org/2000/svg">
<path fill-rule="evenodd" clip-rule="evenodd" d="M2.375 19C2.375 23.4092 4.12656 27.6379 7.24435 30.7556C10.3621 33.8734 14.5908 35.625 19 35.625C23.4092 35.625 27.6379 33.8734 30.7556 30.7556C33.8734 27.6379 35.625 23.4092 35.625 19C35.625 14.5908 33.8734 10.3621 30.7556 7.24435C27.6379 4.12656 23.4092 2.375 19 2.375C14.5908 2.375 10.3621 4.12656 7.24435 7.24435C4.12656 10.3621 2.375 14.5908 2.375 19V19ZM38 19C38 24.0391 35.9982 28.8718 32.435 32.435C28.8718 35.9982 24.0391 38 19 38C13.9609 38 9.12816 35.9982 5.56497 32.435C2.00178 28.8718 0 24.0391 0 19C0 13.9609 2.00178 9.12816 5.56497 5.56497C9.12816 2.00178 13.9609 0 19 0C24.0391 0 28.8718 2.00178 32.435 5.56497C35.9982 9.12816 38 13.9609 38 19V19ZM20.1875 10.6875C20.1875 10.3726 20.0624 10.0705 19.8397 9.84781C19.617 9.62511 19.3149 9.5 19 9.5C18.6851 9.5 18.383 9.62511 18.1603 9.84781C17.9376 10.0705 17.8125 10.3726 17.8125 10.6875V24.4459L12.7158 19.3467C12.4928 19.1238 12.1903 18.9985 11.875 18.9985C11.5597 18.9985 11.2572 19.1238 11.0342 19.3467C10.8113 19.5697 10.686 19.8722 10.686 20.1875C10.686 20.5028 10.8113 20.8053 11.0342 21.0283L18.1592 28.1533C18.2696 28.2638 18.4006 28.3516 18.5449 28.4114C18.6891 28.4713 18.8438 28.5021 19 28.5021C19.1562 28.5021 19.3109 28.4713 19.4551 28.4114C19.5994 28.3516 19.7304 28.2638 19.8408 28.1533L26.9658 21.0283C27.1887 20.8053 27.314 20.5028 27.314 20.1875C27.314 19.8722 27.1887 19.5697 26.9658 19.3467C26.7428 19.1238 26.4403 18.9985 26.125 18.9985C25.8097 18.9985 25.5072 19.1238 25.2842 19.3467L20.1875 24.4459V10.6875Z" fill="#EA1010"/>
</svg>
