<svg width="38" height="38" viewBox="0 0 38 38" fill="none" xmlns="http://www.w3.org/2000/svg">
<path d="M18.6833 17.2583C15.0892 16.3242 13.9333 15.3583 13.9333 13.8542C13.9333 12.1283 15.5325 10.925 18.2083 10.925C21.0267 10.925 22.0717 12.2708 22.1667 14.25H25.6658C25.555 11.5267 23.8925 9.025 20.5833 8.2175V4.75H15.8333V8.17C12.7617 8.835 10.2917 10.83 10.2917 13.8858C10.2917 17.5433 13.3158 19.3642 17.7333 20.425C21.6917 21.375 22.4833 22.7683 22.4833 24.2408C22.4833 25.3333 21.7075 27.075 18.2083 27.075C14.9467 27.075 13.6642 25.6183 13.49 23.75H10.0067C10.1967 27.2175 12.7933 29.165 15.8333 29.8142V33.25H20.5833V29.8458C23.6708 29.26 26.125 27.4708 26.125 24.225C26.125 19.7283 22.2775 18.1925 18.6833 17.2583Z" fill="#ffff"/>
</svg>
