<svg width="38" height="38" viewBox="0 0 38 38" fill="none" xmlns="http://www.w3.org/2000/svg">
<path fill-rule="evenodd" clip-rule="evenodd" d="M2.375 19C2.375 23.4092 4.12656 27.6379 7.24435 30.7556C10.3621 33.8734 14.5908 35.625 19 35.625C23.4092 35.625 27.6379 33.8734 30.7556 30.7556C33.8734 27.6379 35.625 23.4092 35.625 19C35.625 14.5908 33.8734 10.3621 30.7556 7.24435C27.6379 4.12656 23.4092 2.375 19 2.375C14.5908 2.375 10.3621 4.12656 7.24435 7.24435C4.12656 10.3621 2.375 14.5908 2.375 19V19ZM38 19C38 24.0391 35.9982 28.8718 32.435 32.435C28.8718 35.9982 24.0391 38 19 38C13.9609 38 9.12816 35.9982 5.56497 32.435C2.00178 28.8718 0 24.0391 0 19C0 13.9609 2.00178 9.12816 5.56497 5.56497C9.12816 2.00178 13.9609 0 19 0C24.0391 0 28.8718 2.00178 32.435 5.56497C35.9982 9.12816 38 13.9609 38 19V19ZM20.1875 27.3125C20.1875 27.6274 20.0624 27.9295 19.8397 28.1522C19.617 28.3749 19.3149 28.5 19 28.5C18.6851 28.5 18.383 28.3749 18.1603 28.1522C17.9376 27.9295 17.8125 27.6274 17.8125 27.3125V13.5541L12.7158 18.6533C12.4928 18.8762 12.1903 19.0015 11.875 19.0015C11.5597 19.0015 11.2572 18.8762 11.0342 18.6533C10.8113 18.4303 10.686 18.1278 10.686 17.8125C10.686 17.4972 10.8113 17.1947 11.0342 16.9717L18.1592 9.84675C18.2696 9.73616 18.4006 9.64842 18.5449 9.58856C18.6891 9.52869 18.8438 9.49788 19 9.49788C19.1562 9.49788 19.3109 9.52869 19.4551 9.58856C19.5994 9.64842 19.7304 9.73616 19.8408 9.84675L26.9658 16.9717C27.1887 17.1947 27.314 17.4972 27.314 17.8125C27.314 18.1278 27.1887 18.4303 26.9658 18.6533C26.7428 18.8762 26.4403 19.0015 26.125 19.0015C25.8097 19.0015 25.5072 18.8762 25.2842 18.6533L20.1875 13.5541V27.3125Z" fill="#27D658"/>
</svg>
